# xmcd
#
# Track frame offsets: 
#        150
#        15946
#        31851
#        53948
#        73642
#        91873
#        112656
#        151634
#        165568
#        186646
#        210487
#        228726
#
# Disc length: 3383 seconds
#
# Revision: 3
# Processed by: cddbd v1.5.2PL0 Copyright (c) Steve Scherf et al.
# Submitted via: ExactAudioCopy v1.3
#
DISCID=8b0d350c
DTITLE=Pet Shop Boys - [CD 3) Further Listening 1996-2000 (Volume 2)
DYEAR=2017
DGENRE=Electro-Pop
TTITLE0=Somebody Else's Business
TTITLE1=Silver Age
TTITLE2=Screaming
TTITLE3=For All Of Us
TTITLE4=The Ghost Of Myself
TTITLE5=Casting A Shadow
TTITLE6=I Don't Know What You Want But I Can't Give It Any More (The P
TTITLE6=SB Extension)
TTITLE7=Was It Worth It? (Live)
TTITLE8=Lies
TTITLE9=Paris City Boy (Full French)
TTITLE10=Positive Role Model
TTITLE11=Somebody Else's Business (Extended Mix)
EXTD=YEAR: 2017
EXTT0=
EXTT1=
EXTT2=
EXTT3=
EXTT4=
EXTT5=
EXTT6=
EXTT7=
EXTT8=
EXTT9=
EXTT10=
EXTT11=
PLAYORDER=
